<?xml version="1.0" encoding="UTF-8"?>
<svg xmlns="http://www.w3.org/2000/svg" xmlns:xlink="http://www.w3.org/1999/xlink" width="36px" height="36px" viewBox="0 0 36 36" version="1.1">
<defs>
<linearGradient id="linear0" gradientUnits="userSpaceOnUse" x1="0.810603" y1="19.669" x2="34.6923" y2="-1.13478" gradientTransform="matrix(0.9,0,0,0.9,0,0)">
<stop offset="0" style="stop-color:rgb(98.823529%,58.431373%,4.313725%);stop-opacity:1;"/>
<stop offset="0.592076" style="stop-color:rgb(97.647059%,76.862745%,21.960784%);stop-opacity:1;"/>
</linearGradient>
<linearGradient id="linear1" gradientUnits="userSpaceOnUse" x1="14.1068" y1="10.2181" x2="0.818952" y2="25.912" gradientTransform="matrix(0.9,0,0,0.9,0,0)">
<stop offset="0" style="stop-color:rgb(98.823529%,58.431373%,4.313725%);stop-opacity:1;"/>
<stop offset="1" style="stop-color:rgb(97.647059%,76.862745%,21.960784%);stop-opacity:1;"/>
</linearGradient>
<linearGradient id="linear2" gradientUnits="userSpaceOnUse" x1="43.2207" y1="24.8589" x2="5.24054" y2="36.8402" gradientTransform="matrix(0.9,0,0,0.9,0,0)">
<stop offset="0" style="stop-color:rgb(98.823529%,58.431373%,4.313725%);stop-opacity:1;"/>
<stop offset="0.612893" style="stop-color:rgb(97.647059%,76.862745%,21.960784%);stop-opacity:1;"/>
</linearGradient>
<linearGradient id="linear3" gradientUnits="userSpaceOnUse" x1="35.3117" y1="33.6415" x2="31.7442" y2="5.26786" gradientTransform="matrix(0.9,0,0,0.9,0,0)">
<stop offset="0" style="stop-color:rgb(98.823529%,58.431373%,4.313725%);stop-opacity:1;"/>
<stop offset="1" style="stop-color:rgb(97.647059%,76.862745%,21.960784%);stop-opacity:1;"/>
</linearGradient>
</defs>
<g id="surface1">
<path style=" stroke:none;fill-rule:nonzero;fill:url(#linear0);" d="M 16.363281 11.371094 C 8.882812 8.71875 3.53125 12.09375 0.433594 15.980469 C 0.316406 16.125 0.0898438 16.035156 0.117188 15.847656 C 0.296875 14.816406 0.722656 12.800781 1.554688 10.957031 C 4.933594 3.464844 13.925781 -0.179688 19.273438 0.0078125 C 24.621094 0.195312 31.027344 3.695312 28.804688 8.636719 C 26.84375 13.007812 24.1875 14.144531 16.363281 11.371094 Z M 16.363281 11.371094 "/>
<path style=" stroke:none;fill-rule:nonzero;fill:url(#linear1);" d="M 10.753906 11.246094 C 10.753906 11.148438 10.679688 11.058594 10.574219 11.058594 C 8.089844 11.121094 2.800781 12.769531 0.0625 17.746094 C 0.0546875 17.765625 0.046875 17.78125 0.046875 17.808594 C -0.804688 23.761719 10.347656 27.648438 10.753906 11.246094 Z M 10.753906 11.246094 "/>
<path style=" stroke:none;fill-rule:nonzero;fill:url(#linear2);" d="M 19.667969 24.628906 C 27.148438 27.28125 32.5 23.90625 35.597656 20.019531 C 35.714844 19.875 35.941406 19.964844 35.914062 20.152344 C 35.734375 21.183594 35.308594 23.199219 34.476562 25.042969 C 31.105469 32.535156 22.117188 36.179688 16.765625 35.992188 C 11.417969 35.804688 5.011719 32.304688 7.234375 27.363281 C 9.1875 23 11.851562 21.863281 19.667969 24.628906 Z M 19.667969 24.628906 "/>
<path style=" stroke:none;fill-rule:nonzero;fill:url(#linear3);" d="M 25.226562 24.90625 C 25.226562 25.007812 25.300781 25.097656 25.410156 25.097656 C 27.894531 25.03125 33.199219 23.304688 35.9375 18.316406 C 35.945312 18.300781 35.953125 18.28125 35.953125 18.253906 C 36.804688 12.308594 25.636719 8.503906 25.226562 24.90625 Z M 25.226562 24.90625 "/>
</g>
</svg>
